<svg width="117" height="24" viewBox="0 0 117 24" fill="none" xmlns="http://www.w3.org/2000/svg">
<g clip-path="url(#clip0_2269_1569)">
<path d="M40.1953 18.7469H42.7293L43.3186 10.9489C43.3775 10.0257 43.3382 8.76855 43.3382 8.76855H43.3775C43.3775 8.76855 43.8097 10.1435 44.1436 10.9489L46.3828 16.3505H48.6024L50.8613 10.9489C51.1952 10.1435 51.6077 8.78819 51.6077 8.78819H51.647C51.647 8.78819 51.6077 10.0257 51.6666 10.9489L52.2559 18.7469H54.7701L53.6505 4.80078H50.9399L48.2096 11.6953C47.8953 12.5202 47.5221 13.7381 47.5221 13.7381H47.4828C47.4828 13.7381 47.0899 12.5202 46.7757 11.6953L44.0454 4.80078H41.3346L40.1953 18.7469ZM55.9865 13.7381C55.9865 16.5862 58.0489 18.9826 61.3685 18.9826C63.8631 18.9826 65.3952 17.5487 65.3952 17.5487L64.4327 15.7612C64.4327 15.7612 63.1559 16.8612 61.5453 16.8612C60.0524 16.8612 58.6971 15.9577 58.54 14.2095H65.4541C65.4541 14.2095 65.513 13.5417 65.513 13.247C65.513 10.5953 63.9613 8.49355 61.0738 8.49355C58.0882 8.49355 55.9865 10.6542 55.9865 13.7381ZM58.6185 12.5006C58.8542 11.2042 59.7381 10.4185 61.0149 10.4185C62.1149 10.4185 62.9595 11.1453 62.9988 12.5006H58.6185ZM67.2162 15.0738C67.2162 18.4326 69.9858 18.8451 71.3804 18.8451C71.8519 18.8451 72.1465 18.7862 72.1465 18.7862V16.6059C72.1465 16.6059 71.9697 16.6452 71.6947 16.6452C71.0072 16.6452 69.7108 16.4094 69.7108 14.7595V10.8703H71.9894V8.8864H69.7108V5.99897H67.2752V8.8864H65.9198V10.8703H67.2162V15.0738ZM73.4025 18.7469H75.8971V14.7791C75.8971 14.1899 75.956 13.6399 76.1131 13.1488C76.5845 11.656 77.7827 11.0471 78.8434 11.0471C79.1773 11.0471 79.4327 11.0864 79.4327 11.0864V8.63105C79.4327 8.63105 79.2166 8.59177 78.9809 8.59177C77.4488 8.59177 76.2506 9.73103 75.7988 11.1649H75.7596C75.7596 11.1649 75.7988 10.831 75.7988 10.4578V8.72926H73.4025V18.7469ZM79.5819 13.7381C79.5819 16.8219 82.0372 18.9826 85.1014 18.9826C88.146 18.9826 90.6013 16.8219 90.6013 13.7381C90.6013 10.6739 88.146 8.49355 85.0818 8.49355C82.0372 8.49355 79.5819 10.6739 79.5819 13.7381ZM82.1158 13.7381C82.1158 11.8917 83.4711 10.6149 85.1014 10.6149C86.7121 10.6149 88.0674 11.8917 88.0674 13.7381C88.0674 15.6041 86.7121 16.8612 85.1014 16.8612C83.4711 16.8612 82.1158 15.6041 82.1158 13.7381ZM91.8191 18.7469H94.3137V14.1506C94.3137 13.6792 94.353 13.2274 94.4905 12.8149C94.8637 11.6167 95.8458 10.7721 97.1815 10.7721C98.4583 10.7721 98.7725 11.5971 98.7725 12.8149V18.7469H101.247V12.3042C101.247 9.65246 99.9904 8.49355 97.7708 8.49355C95.7476 8.49355 94.6476 9.73103 94.2155 10.5756H94.1762C94.1762 10.5756 94.2155 10.2614 94.2155 9.88817V8.72926H91.8191V18.7469ZM103.08 7.02037H105.554V4.80078H103.08V7.02037ZM103.08 18.7469H105.574V8.72926H103.08V18.7469ZM106.804 13.7381C106.804 16.6452 108.925 18.9826 112.245 18.9826C114.936 18.9826 116.369 17.3523 116.369 17.3523L115.407 15.5845C115.407 15.5845 114.15 16.8612 112.461 16.8612C110.555 16.8612 109.338 15.4077 109.338 13.7184C109.338 12.0095 110.536 10.6149 112.382 10.6149C113.953 10.6149 114.995 11.6953 114.995 11.6953L116.094 9.98638C116.094 9.98638 114.857 8.49355 112.245 8.49355C108.925 8.49355 106.804 10.8899 106.804 13.7381Z" fill="#181C32"/>
<path d="M26.1917 1.19008L32.7096 21.4845C33.065 22.591 32.2396 23.7229 31.0775 23.7229H26.2846C25.5377 23.7229 24.8767 23.2393 24.6507 22.5275L18.2069 2.23308C17.8559 1.12766 18.6809 0 19.8407 0H24.5595C25.3043 0 25.964 0.480939 26.1917 1.19008Z" fill="#47BE7D"/>
<g filter="url(#filter0_i_2269_1569)">
<path d="M19.9494 16.2L15.3533 1.47822C15.0788 0.598839 14.2645 0 13.3432 0C12.2219 0 11.2973 0.878726 11.2402 1.9986L10.6795 13.0025C10.6596 13.3933 10.7067 13.7847 10.8189 14.1596L13.3139 22.5C13.531 23.2257 14.1987 23.7229 14.9562 23.7229H17.2755C18.0216 23.7229 18.6821 23.2403 18.9087 22.5294L19.9401 19.2949C20.2608 18.2887 20.2641 17.2081 19.9494 16.2Z" fill="#F4F4F4"/>
<path d="M19.9494 16.2L15.3533 1.47822C15.0788 0.598839 14.2645 0 13.3432 0C12.2219 0 11.2973 0.878726 11.2402 1.9986L10.6795 13.0025C10.6596 13.3933 10.7067 13.7847 10.8189 14.1596L13.3139 22.5C13.531 23.2257 14.1987 23.7229 14.9562 23.7229H17.2755C18.0216 23.7229 18.6821 23.2403 18.9087 22.5294L19.9401 19.2949C20.2608 18.2887 20.2641 17.2081 19.9494 16.2Z" fill="url(#paint0_linear_2269_1569)"/>
</g>
<path d="M8.70728 0H13.4278C14.5838 0 15.4084 1.12067 15.0645 2.22426L8.68692 22.6918C8.46372 23.4081 7.80059 23.8961 7.05025 23.8961H2.32973C1.1738 23.8961 0.349185 22.7754 0.693061 21.6718L7.07061 1.20431C7.29385 0.487954 7.95698 0 8.70728 0Z" fill="#47BE7D"/>
</g>
<defs>
<filter id="filter0_i_2269_1569" x="6.67505" y="0" width="13.5081" height="26.7229" filterUnits="userSpaceOnUse" color-interpolation-filters="sRGB">
<feFlood flood-opacity="0" result="BackgroundImageFix"/>
<feBlend mode="normal" in="SourceGraphic" in2="BackgroundImageFix" result="shape"/>
<feColorMatrix in="SourceAlpha" type="matrix" values="0 0 0 0 0 0 0 0 0 0 0 0 0 0 0 0 0 0 127 0" result="hardAlpha"/>
<feOffset dx="-4" dy="3"/>
<feGaussianBlur stdDeviation="2"/>
<feComposite in2="hardAlpha" operator="arithmetic" k2="-1" k3="1"/>
<feColorMatrix type="matrix" values="0 0 0 0 0.904167 0 0 0 0 0.892865 0 0 0 0 0.892865 0 0 0 0.4 0"/>
<feBlend mode="normal" in2="shape" result="effect1_innerShadow_2269_1569"/>
</filter>
<linearGradient id="paint0_linear_2269_1569" x1="12.4286" y1="10.5" x2="21" y2="13.0714" gradientUnits="userSpaceOnUse">
<stop stop-opacity="0.2"/>
<stop offset="0.911458" stop-color="white" stop-opacity="0"/>
</linearGradient>
<clipPath id="clip0_2269_1569">
<rect width="117" height="24" fill="white"/>
</clipPath>
</defs>
</svg>
