<svg xmlns="http://www.w3.org/2000/svg" height="512" viewBox="-112 0 480 480.002" width="512" class="hovered-paths"><path d="M248 472L128 312 8 472V8h240zm0 0" fill="#42a7ff" data-original="#FF5B42" class="hovered-path active-path" data-old_color="#ff5b42"/><path d="M5.473 479.594a8.008 8.008 0 008.93-2.793L128 325.336 241.602 476.8A8.009 8.009 0 00248 480c.86-.004 1.71-.14 2.527-.406A8.003 8.003 0 00256 472V8a8 8 0 00-8-8H8a8 8 0 00-8 8v464a8.003 8.003 0 005.473 7.594zM16 16h224v432L134.402 307.2A8.01 8.01 0 00128 304a8.009 8.009 0 00-6.398 3.2L16 448zm0 0" data-original="#000000" data-old_color="#000000" fill="#fff"/></svg>