<svg width="150" height="151" viewBox="0 0 150 151" fill="none" xmlns="http://www.w3.org/2000/svg">
<path d="M81.1973 4.03877C72.6638 4.03877 65.0019 -3.81457 65.0019 2.38241C65.0019 3.49931 61.1782 3.83699 61.5971 4.85546C38.3805 8.6776 20.2876 22.2733 9.77892 42.4327C0.244556 43.3574 5.0053 48.9779 5.0053 56.6729C5.0053 62.0013 -3.59377 67.4105 1.75008 70.0964C1.57409 72.1715 1.48552 74.2679 1.48552 76.3884C1.48552 117.024 34.4654 150.004 75.1014 150.004C78.9272 150.004 82.6816 149.705 86.3506 149.142C86.3497 149.176 86.3506 149.211 86.3506 149.245C86.3506 151.378 89.3512 147.957 91.6878 147.957C94.0243 147.957 94.8165 151.378 94.8165 149.245C94.8165 148.601 94.65 147.985 94.3449 147.451C100.41 145.81 104.88 143.79 110.218 140.745C115.243 142.197 115.9 142.249 117.821 140.963C122.417 137.888 115.532 133.732 124.631 136.362C127.004 137.048 123.918 134.277 122.261 132.9C124.412 131.103 126.46 129.188 128.392 127.16C129.337 128.816 129.169 124.4 131.072 124.4C134.018 124.4 133.097 123.233 133.097 119.983C133.097 117.677 137.044 119.73 135.294 118.763C142.362 108.744 146.997 96.8847 148.326 84.049C150.753 82.8284 150.396 77.3787 148.188 70.2921C145.709 62.339 150.296 54.0966 147.452 54.0966C146.793 54.0966 146.167 54.4597 145.588 55.1203C138.071 30.2046 119.909 11.9482 94.403 5.87861C95.14 4.56961 92.2406 3.8827 92.2406 2.38186C92.2406 -3.81512 89.7317 4.03822 81.1982 4.03822L81.1973 4.03877Z" fill="#D7DED1" fill-opacity="0.97647"/>
<path fill-rule="evenodd" clip-rule="evenodd" d="M71.2482 4.59307C69.4298 4.66381 68.4801 6.75429 67.142 8.06682C61.0959 8.34792 54.9736 9.88896 49.0601 13.2545C34.1433 21.7439 23.815 35.3702 17.0257 47.5087C14.2246 47.4071 11.4379 46.6994 8.67476 46.7956C5.59309 47.6856 6.83164 51.1238 8.08811 53.0301C9.46565 55.938 8.75058 59.643 6.35122 61.8066C3.84578 63.1856 4.64389 66.2832 7.46695 66.3384C7.77266 66.4533 8.06408 66.5145 8.34113 66.5339C6.81276 70.7547 6.12117 73.378 6.12117 73.378C6.12117 73.378 85.7625 3.36562 119.077 30.1728C119.077 30.1728 106.771 18.7918 90.2637 12.3438C90.4789 10.3246 91.5716 7.1458 89.3205 6.00585C87.1027 7.0809 84.5903 7.05135 82.189 7.19063C78.6473 7.7984 75.625 5.58643 72.3315 4.77511C71.9359 4.63754 71.5809 4.57821 71.2502 4.59107L71.2482 4.59307Z" fill="#EEF0EC" fill-opacity="0.97647"/>
<path fill-rule="evenodd" clip-rule="evenodd" d="M140.676 92.3783C100.335 114.241 74.3077 139.746 33.1859 131.417C33.1859 131.417 58.6868 148.093 86.0862 145.404C86.7611 146.048 87.3866 146.748 88.2487 147.095C89.9551 147.347 91.4805 146.111 92.6656 145.036C92.9093 144.802 93.0566 144.536 93.1372 144.265C99.6287 142.789 106.119 140.079 112.289 135.638C113.5 136.712 114.68 137.907 116.016 137.616C117.42 135.795 119.103 134.075 120.363 132.302C120.261 131.561 120.058 130.345 119.685 129.288C121.689 127.262 123.639 125.018 125.528 122.525C127.05 121.548 128.439 120.346 129.669 119.017C130.446 118.093 131.633 116.942 130.969 115.635C130.85 115.47 130.674 115.295 130.497 115.117C134.278 108.792 137.71 101.277 140.677 92.3771L140.676 92.3783Z" fill="#C4CCBD" fill-opacity="0.97647"/>
<path d="M81.3559 78.217C81.3559 84.1805 78.9869 89.8997 74.7701 94.1165C70.5533 98.3333 64.8341 100.702 58.8707 100.702C52.9072 100.702 47.188 98.3333 42.9712 94.1165C38.7544 89.8997 36.3854 84.1805 36.3854 78.217C36.3854 72.2536 38.7544 66.5344 42.9712 62.3176C47.188 58.1008 52.9072 55.7318 58.8707 55.7318C64.8341 55.7318 70.5533 58.1008 74.7701 62.3176C78.9869 66.5344 81.3559 72.2536 81.3559 78.217V78.217Z" fill="#C4CCBE"/>
<path d="M55.9772 57.9849C45.597 59.5015 38.122 68.4288 38.122 78.6195C40.49 69.8279 48.034 63.9567 57.6114 62.5576C64.676 61.5254 71.3066 62.628 76.3051 66.9756C71.9566 60.5409 64.1717 56.7876 55.9768 57.9849H55.9772Z" fill="#A2AE98"/>
<path d="M54.7811 54.3814C44.4016 55.9007 36.2862 63.3842 36.2888 73.5749C38.6545 64.7826 46.0359 57.7854 55.6133 56.3837C62.6775 55.3497 69.4693 57.5748 74.4689 61.9211C70.1186 55.4874 62.9752 53.1818 54.7807 54.3814H54.7811Z" fill="#ECECEC"/>
<path d="M81.4521 77.703C81.3647 79.969 80.947 82.1965 80.2328 84.317C80.7816 83.9819 81.3725 83.7159 82.0042 83.5349C82.0642 81.5671 81.886 79.6027 81.4521 77.703ZM86.0303 85.6167C85.9169 88.5574 84.0934 91.2958 81.1761 92.4262C78.9477 93.1414 76.9833 93.5887 76.7477 90.9424C76.3767 91.4377 75.9852 91.9139 75.5744 92.3802C75.3231 92.2783 75.066 92.1631 74.8268 92.0351C75.0172 92.2132 75.2241 92.3782 75.4364 92.5412C73.0433 95.2086 69.9988 97.37 66.4299 98.7525C59.7724 101.332 52.6597 100.682 46.8182 97.5563C52.4903 102.861 61.5602 106.23 69.2825 103.239C73.2644 101.696 76.3916 98.8247 78.5537 95.2904C78.8629 94.0589 79.429 94.6363 82.0964 93.8756C85.258 92.6506 86.7637 88.8277 86.0305 85.6166L86.0303 85.6167Z" fill="#A2AE98"/>
<path d="M72.1369 132.252C72.1369 134.813 71.1194 137.27 69.3082 139.081C67.497 140.892 65.0406 141.91 62.4792 141.91C59.9178 141.91 57.4614 140.892 55.6502 139.081C53.839 137.27 52.8215 134.813 52.8215 132.252C52.8215 129.691 53.839 127.234 55.6502 125.423C57.4614 123.612 59.9178 122.594 62.4792 122.594C65.0406 122.594 67.497 123.612 69.3082 125.423C71.1194 127.234 72.1369 129.691 72.1369 132.252V132.252Z" fill="#C4CCBE"/>
<path d="M61.237 123.562C56.7788 124.213 53.5681 128.048 53.5681 132.424C54.5851 128.648 57.8253 126.127 61.9389 125.526C64.9732 125.082 67.8212 125.556 69.9682 127.423C68.1005 124.659 64.7569 123.047 61.237 123.562V123.562Z" fill="#A2AE98"/>
<path d="M60.7255 122.012C56.2673 122.665 52.7816 125.879 52.7831 130.256C53.7992 126.48 56.9696 123.474 61.0833 122.873C64.1175 122.428 67.0344 123.384 69.1821 125.251C67.3136 122.488 64.2454 121.497 60.7259 122.013L60.7255 122.012Z" fill="#ECECEC"/>
<path d="M67.0306 143.078C71.2319 141.45 73.2324 136.376 72.2577 132.109C72.107 136.017 69.6844 139.652 65.8078 141.154C62.9484 142.261 59.8917 141.979 57.3829 140.636C59.8192 142.915 63.7138 144.362 67.0306 143.077V143.078Z" fill="#A2AE98"/>
<path d="M64.4872 140.935C68.8611 139.854 71.6847 135.726 71.2599 131.37C70.6141 135.227 68.0253 138.111 63.9896 139.108C61.0126 139.844 57.7407 139.589 55.4229 137.939C57.5501 140.508 61.0343 141.788 64.4876 140.935L64.4872 140.935Z" fill="#ECECEC"/>
<path d="M31.4708 95.8319C31.4708 97.0545 30.9851 98.227 30.1206 99.0915C29.2561 99.956 28.0836 100.442 26.861 100.442C25.6384 100.442 24.4659 99.956 23.6013 99.0915C22.7368 98.227 22.2512 97.0545 22.2512 95.8319C22.2512 94.6093 22.7368 93.4367 23.6013 92.5722C24.4659 91.7077 25.6384 91.222 26.861 91.222C28.0836 91.222 29.2561 91.7077 30.1206 92.5722C30.9851 93.4367 31.4708 94.6093 31.4708 95.8319V95.8319Z" fill="#C4CCBE"/>
<path d="M26.2658 91.6827C24.1377 91.9936 22.6052 93.8238 22.6053 95.913C23.0908 94.1106 24.6374 92.907 26.6008 92.6201C28.0491 92.4085 29.4084 92.6346 30.4332 93.5259C29.5417 92.2067 27.9458 91.4372 26.2658 91.6827H26.2658Z" fill="#808080"/>
<path d="M26.023 90.9463C23.895 91.2578 22.2314 92.7921 22.2318 94.8811C22.7168 93.0786 24.2301 91.6441 26.1934 91.3567C27.6416 91.1447 29.034 91.6008 30.059 92.4919C29.1671 91.1729 27.7027 90.7002 26.0226 90.9462L26.023 90.9463Z" fill="#ECECEC"/>
<path d="M29.0301 100.999C31.0355 100.222 31.9903 97.7998 31.5251 95.7631C31.4531 97.6283 30.2968 99.3635 28.4464 100.08C27.0816 100.609 25.6226 100.474 24.4252 99.8332C25.588 100.921 27.447 101.612 29.0302 100.999L29.0301 100.999Z" fill="#808080"/>
<path d="M27.8192 99.979C29.9071 99.463 31.2547 97.4927 31.0519 95.4133C30.7437 97.2544 29.508 98.631 27.5816 99.107C26.1607 99.4582 24.599 99.3365 23.4926 98.5488C24.508 99.7753 26.1711 100.386 27.8194 99.9788L27.8192 99.979Z" fill="#ECECEC"/>
<path d="M51.0985 39.8708C51.0985 42.1808 50.1808 44.3963 48.5473 46.0298C46.9138 47.6633 44.6984 48.581 42.3883 48.581C40.0782 48.581 37.8627 47.6633 36.2292 46.0298C34.5957 44.3963 33.678 42.1808 33.678 39.8708C33.678 37.5607 34.5957 35.3452 36.2292 33.7117C37.8627 32.0782 40.0782 31.1605 42.3883 31.1605C44.6984 31.1605 46.9138 32.0782 48.5473 33.7117C50.1808 35.3452 51.0985 37.5607 51.0985 39.8708V39.8708Z" fill="#DADED5"/>
<path d="M41.2688 32.0314C37.2479 32.6189 34.3526 36.077 34.3526 40.0243C35.2699 36.6187 38.192 34.3445 41.9019 33.8026C44.6384 33.4028 47.2067 33.8299 49.1431 35.5141C47.4587 33.0215 44.4431 31.5675 41.2688 32.0315V32.0314Z" fill="#808080"/>
<path d="M40.805 30.6363C36.7844 31.2249 33.6407 34.1237 33.6418 38.0712C34.5582 34.6654 37.4175 31.9552 41.1274 31.4119C43.8638 31.0113 46.4947 31.8732 48.4312 33.5569C46.7461 31.0647 43.9789 30.1716 40.805 30.6363V30.6363Z" fill="#ECECEC"/>
<path d="M46.4918 49.633C50.2808 48.1649 52.0848 43.5891 51.2058 39.7408C51.0699 43.2651 48.885 46.5437 45.389 47.8982C42.8103 48.8973 40.0537 48.6422 37.7908 47.4315C39.988 49.4864 43.5004 50.7922 46.4918 49.6332V49.633Z" fill="#808080"/>
<path d="M44.1987 47.7006C48.1434 46.7258 50.6897 43.0029 50.3066 39.0743C49.7241 42.5528 47.3894 45.1539 43.7496 46.0535C41.0648 46.717 38.1139 46.4871 36.0236 44.9988C37.942 47.3162 41.0843 48.4705 44.1987 47.7008V47.7006Z" fill="#ECECEC"/>
<path d="M98.8294 26.633C98.8294 27.8556 98.3438 29.0281 97.4793 29.8927C96.6148 30.7572 95.4422 31.2428 94.2196 31.2428C92.997 31.2428 91.8245 30.7572 90.96 29.8927C90.0955 29.0281 89.6098 27.8556 89.6098 26.633C89.6098 25.4104 90.0955 24.2379 90.96 23.3734C91.8245 22.5089 92.997 22.0232 94.2196 22.0232C95.4422 22.0232 96.6148 22.5089 97.4793 23.3734C98.3438 24.2379 98.8294 25.4104 98.8294 26.633V26.633Z" fill="#DADED5"/>
<path d="M93.6244 22.4835C91.4964 22.7944 89.9639 24.6246 89.9639 26.7138C90.4494 24.9114 91.996 23.7078 93.9594 23.4209C95.4077 23.2093 96.7671 23.4354 97.7919 24.3267C96.9003 23.0075 95.3044 22.238 93.6245 22.4835H93.6244Z" fill="#808080"/>
<path d="M93.3816 21.7475C91.2537 22.059 89.59 23.5932 89.5904 25.6823C90.0754 23.8797 91.5887 22.4452 93.552 22.1578C95.0003 21.9458 96.3927 22.402 97.4176 23.2931C96.5257 21.9741 95.0613 21.5014 93.3812 21.7473L93.3816 21.7475Z" fill="#ECECEC"/>
<path d="M96.3886 31.7998C98.394 31.0228 99.3488 28.601 98.8835 26.5642C98.8116 28.4295 97.6552 30.1646 95.8049 30.8814C94.4401 31.4102 92.9811 31.2752 91.7836 30.6344C92.9465 31.722 94.8055 32.4131 96.3887 31.7997L96.3886 31.7998Z" fill="#808080"/>
<path d="M95.1779 30.7801C97.2657 30.2642 98.6134 28.2939 98.4106 26.2145C98.1023 28.0555 96.8667 29.4322 94.9403 29.9082C93.5193 30.2593 91.9576 30.1376 90.8513 29.3499C91.8666 30.5764 93.5297 31.1873 95.178 30.78L95.1779 30.7801Z" fill="#ECECEC"/>
<path d="M135.043 104.337C134.649 106.294 133.624 108.044 132.193 109.203C130.762 110.361 129.042 110.834 127.412 110.515C125.782 110.197 124.375 109.115 123.5 107.507C122.626 105.898 122.356 103.895 122.749 101.939C123.143 99.9821 124.168 98.232 125.599 97.0734C127.03 95.9148 128.75 95.4426 130.38 95.7607C132.011 96.0788 133.418 97.1611 134.292 98.7696C135.166 100.378 135.436 102.381 135.043 104.337V104.337Z" fill="#C4CCBE"/>
<path d="M129.432 96.3469C126.49 96.2907 123.854 98.8274 123.181 102.179C124.41 99.4141 126.863 97.8863 129.577 97.9383C131.579 97.9766 133.321 98.6938 134.402 100.391C133.637 98.0421 131.754 96.3912 129.432 96.347L129.432 96.3469Z" fill="#A2AE98"/>
<path d="M129.337 95.1043C126.395 95.049 123.679 97.0773 123.006 100.431C124.235 97.6641 126.718 95.7568 129.433 95.8076C131.435 95.8452 133.147 96.9407 134.228 98.6382C133.462 96.2886 131.659 95.1478 129.337 95.1042L129.337 95.1043Z" fill="#ECECEC"/>
<path d="M130.145 111.967C133.071 111.244 135.126 107.614 135.161 104.23C134.464 107.199 132.362 109.677 129.663 110.344C127.671 110.836 125.768 110.239 124.377 108.901C125.578 110.946 127.835 112.537 130.145 111.967L130.145 111.967Z" fill="#A2AE98"/>
<path d="M128.85 110.017C131.803 109.734 134.237 106.926 134.636 103.539C133.631 106.411 131.538 108.296 128.813 108.557C126.804 108.75 124.758 108.148 123.535 106.596C124.495 108.828 126.518 110.241 128.85 110.017L128.85 110.017Z" fill="#ECECEC"/>
<path d="M86.1191 85.9129C86.1191 87.8404 85.3534 89.689 83.9905 91.0519C82.6275 92.4149 80.779 93.1806 78.8515 93.1806C76.924 93.1806 75.0754 92.4149 73.7124 91.0519C72.3495 89.689 71.5838 87.8404 71.5838 85.9129C71.5838 83.9854 72.3495 82.1369 73.7124 80.7739C75.0754 79.411 76.924 78.6453 78.8515 78.6453C80.779 78.6453 82.6275 79.411 83.9905 80.7739C85.3534 82.1369 86.1191 83.9854 86.1191 85.9129V85.9129Z" fill="#C4CCBE"/>
<path d="M83.6349 87.089C83.5215 90.0297 78.6614 91.2958 75.1919 90.7698C71.0966 93.6199 68.6949 94.3648 63.1145 96.6362C55.1687 98.2034 48.6081 95.8969 42.7667 92.7714C48.4388 98.0765 57.5086 101.446 65.2309 98.4538C69.2128 96.911 73.0762 95.3279 75.2383 91.7938C76.3757 91.9426 77.1259 92.52 79.1491 92.4034C80.4703 92.5587 83.6323 92.8769 83.6353 87.0891L83.6349 87.089Z" fill="#ECECEC"/>
<path d="M96.8191 108.225C96.8191 110.642 95.8586 112.961 94.1489 114.671C92.4392 116.381 90.1204 117.341 87.7025 117.341C85.2847 117.341 82.9658 116.381 81.2561 114.671C79.5464 112.961 78.5859 110.642 78.5859 108.225C78.5859 105.807 79.5464 103.488 81.2561 101.778C82.9658 100.069 85.2847 99.108 87.7025 99.108C90.1204 99.108 92.4392 100.069 94.1489 101.778C95.8586 103.488 96.8191 105.807 96.8191 108.225V108.225Z" fill="#C4CCBE"/>
<path d="M86.5279 100.019C82.3193 100.634 79.2885 104.254 79.2885 108.386C80.2486 104.821 83.3076 102.441 87.1908 101.873C90.0552 101.455 92.7436 101.902 94.7703 103.665C93.0072 101.056 89.8509 99.5342 86.5283 100.02L86.5279 100.019Z" fill="#A2AE98"/>
<path d="M86.0458 98.5584C81.8372 99.1744 78.5469 102.209 78.548 106.341C79.5073 102.776 82.5001 99.9387 86.3833 99.3704C89.2476 98.9511 92.0013 99.8533 94.0287 101.616C92.2649 99.007 89.3685 98.0722 86.0462 98.5585L86.0458 98.5584Z" fill="#ECECEC"/>
<path d="M91.9976 118.442C95.9636 116.905 97.8519 112.116 96.9317 108.088C96.7894 111.776 94.5025 115.208 90.8429 116.626C88.1436 117.672 85.2584 117.405 82.8898 116.137C85.1897 118.288 88.866 119.655 91.9972 118.442L91.9976 118.442Z" fill="#A2AE98"/>
<path d="M89.5978 116.421C93.7269 115.401 96.3921 111.504 95.9913 107.392C95.3816 111.033 92.9379 113.755 89.1281 114.697C86.3178 115.391 83.2292 115.151 81.041 113.593C83.049 116.019 86.338 117.227 89.5981 116.421L89.5978 116.421Z" fill="#ECECEC"/>
<path d="M64.9984 15.124C65.1535 15.9848 64.5488 16.9461 63.3171 17.7965C62.0854 18.6469 60.3278 19.3167 58.4309 19.6585C56.5339 20.0004 54.6531 19.9863 53.202 19.6194C51.751 19.2525 50.8487 18.5628 50.6935 17.702C50.5384 16.8413 51.1432 15.88 52.3749 15.0296C53.6065 14.1792 55.3641 13.5094 57.2611 13.1675C59.158 12.8257 61.0389 12.8397 62.4899 13.2066C63.941 13.5736 64.8433 14.2633 64.9984 15.124V15.124Z" fill="#E2E4DF" fill-opacity="0.97647"/>
<path d="M56.3969 13.6606C53.1345 14.4745 50.9891 16.1915 51.2541 17.6623C51.7787 16.2576 54.0256 14.9778 57.0358 14.2267C59.2562 13.6728 61.3939 13.4518 63.097 13.7928C61.5464 13.1133 58.9727 13.0179 56.3969 13.6605V13.6606Z" fill="#808080"/>
<path d="M55.9259 13.2082C52.6637 14.0225 50.277 15.5678 50.5431 17.0384C51.0669 15.6337 53.2329 14.2006 56.2428 13.4493C58.463 12.8951 60.6811 12.8269 62.3846 13.1676C60.8334 12.4884 58.5013 12.5651 55.9259 13.208V13.2082Z" fill="#ECECEC"/>
<path d="M61.8702 19.4468C64.8831 18.339 66.0571 16.367 65.077 15.063C65.202 16.3963 63.628 17.9413 60.8481 18.9635C58.7976 19.7175 56.5169 20.0303 54.5775 19.914C56.5198 20.3546 59.4918 20.3213 61.8703 19.4468L61.8702 19.4468Z" fill="#808080"/>
<path d="M59.8568 19.0639C63.0308 18.1168 64.8719 16.3528 64.2933 14.9454C64.0486 16.3278 62.3061 17.6425 59.3776 18.5164C57.2174 19.1609 54.7788 19.5119 52.9623 19.2668C54.6933 19.8463 57.3513 19.8114 59.8572 19.0637L59.8568 19.0639Z" fill="#ECECEC"/>
<path d="M29.9542 124.154C30.8252 126.142 31.3202 128.197 31.3302 129.868C31.3401 131.539 30.8642 132.688 30.0072 133.064C29.1502 133.44 27.9823 133.01 26.7603 131.871C25.5384 130.731 24.3625 128.974 23.4914 126.987C22.6203 125 22.1254 122.944 22.1154 121.273C22.1055 119.603 22.5813 118.453 23.4383 118.077C24.2954 117.702 25.4633 118.131 26.6853 119.271C27.9072 120.41 29.0831 122.167 29.9542 124.154V124.154Z" fill="#C4CCBE"/>
<path d="M23.3507 119.009C22.0806 120.168 22.3103 123.614 23.7989 127.01C22.855 123.931 23.0816 121.499 24.2535 120.429C25.118 119.64 26.2319 119.59 27.5853 120.724C26.0204 118.854 24.3535 118.093 23.3505 119.009L23.3507 119.009Z" fill="#A2AE98"/>
<path d="M22.655 117.886C21.3853 119.046 21.3122 122.051 22.8012 125.447C21.8569 122.368 21.8955 119.571 23.0671 118.501C23.9313 117.711 25.2323 118.025 26.5857 119.159C25.0208 117.289 23.6574 116.97 22.655 117.886L22.655 117.886Z" fill="#ECECEC"/>
<path d="M31.9271 133.301C32.7792 131.422 31.7229 127.192 29.9457 124.024C31.2242 127.078 31.6499 130.254 30.8637 131.988C30.2837 133.267 29.1648 133.496 27.8688 132.822C29.4589 134.233 31.2543 134.785 31.9269 133.301H31.9271Z" fill="#A2AE98"/>
<path d="M30.3479 132.013C31.4438 130.533 30.9847 126.916 29.361 123.598C30.4566 126.686 30.5713 129.303 29.5602 130.669C28.8144 131.677 27.6329 131.959 26.2961 131.018C27.8817 132.7 29.4828 133.182 30.348 132.013L30.3479 132.013Z" fill="#ECECEC"/>
<path d="M123.622 47.6351C124.367 50.4093 123.813 53.4026 122.082 55.9564C120.351 58.5102 117.584 60.4154 114.391 61.2529C111.198 62.0903 107.839 61.7914 105.055 60.4218C102.27 59.0523 100.287 56.7244 99.542 53.9502C98.7971 51.176 99.3511 48.1827 101.082 45.6289C102.813 43.0751 105.58 41.1699 108.773 40.3324C111.966 39.495 115.325 39.7939 118.109 41.1635C120.894 42.533 122.877 44.8609 123.622 47.6351V47.6351Z" fill="#C4CCBE"/>
<path d="M107.514 41.8076C102.14 43.978 99.2483 49.1989 100.522 53.9567C100.693 49.5185 104.003 45.7148 108.962 43.7121C112.62 42.235 116.312 41.8157 119.536 43.1412C116.4 40.7496 111.758 40.094 107.514 41.8075L107.514 41.8076Z" fill="#A2AE98"/>
<path d="M106.428 40.3152C101.053 42.4877 97.6375 47.1269 98.9127 51.8865C99.082 47.4463 102.165 43.1376 107.124 41.133C110.782 39.6544 114.701 39.7366 117.925 41.0621C114.789 38.6701 110.671 38.5999 106.427 40.3149L106.428 40.3152Z" fill="#ECECEC"/>
<path d="M120.391 60.9841C125.158 57.8428 126.177 51.6842 123.719 47.3748C124.668 51.6629 122.704 56.3993 118.305 59.2979C115.061 61.4358 111.166 62.1297 107.646 61.4949C111.348 63.1689 116.627 63.4643 120.391 60.9843L120.391 60.9841Z" fill="#A2AE98"/>
<path d="M116.603 59.5228C121.746 56.9151 124.068 51.5064 122.27 46.9144C122.587 51.3152 120.196 55.296 115.45 57.7023C111.949 59.477 107.792 60.2725 104.42 59.2401C107.822 61.3336 112.542 61.5815 116.603 59.5228L116.603 59.5228Z" fill="#ECECEC"/>
<path d="M106.548 50.7355C105.5 51.1575 104.938 52.1788 105.189 53.1118C105.22 52.2423 105.865 51.4989 106.832 51.1095C107.545 50.8223 108.265 50.7423 108.895 51.0039C108.282 50.5334 107.376 50.4023 106.548 50.7355V50.7355Z" fill="#A2AE98"/>
<path d="M106.336 50.4442C105.288 50.8667 104.623 51.7739 104.874 52.7074C104.905 51.8373 105.505 50.9948 106.473 50.6049C107.186 50.3173 107.951 50.3357 108.581 50.5975C107.967 50.1268 107.164 50.1106 106.336 50.4442Z" fill="#ECECEC"/>
<path d="M109.066 54.4884C109.994 53.8762 110.191 52.6712 109.709 51.8262C109.896 52.6662 109.515 53.5922 108.658 54.1571C108.026 54.5737 107.267 54.7073 106.579 54.581C107.302 54.9108 108.332 54.9717 109.066 54.4884L109.066 54.4884Z" fill="#A2AE98"/>
<path d="M108.326 54.2029C109.328 53.6952 109.779 52.6372 109.427 51.7367C109.49 52.5988 109.025 53.3772 108.1 53.8456C107.418 54.1912 106.607 54.3446 105.948 54.1404C106.613 54.5524 107.534 54.6037 108.326 54.2029L108.326 54.2029Z" fill="#ECECEC"/>
<path d="M111.698 45.5992C110.943 45.9033 110.537 46.6392 110.718 47.3114C110.741 46.6849 111.205 46.1493 111.902 45.8687C112.416 45.6618 112.935 45.6041 113.388 45.7927C112.947 45.4537 112.294 45.3592 111.698 45.5992V45.5992Z" fill="#A2AE98"/>
<path d="M111.545 45.3899C110.79 45.6944 110.311 46.348 110.492 47.0206C110.514 46.3937 110.946 45.7866 111.643 45.5057C112.157 45.2985 112.708 45.3118 113.162 45.5004C112.72 45.1612 112.141 45.1496 111.545 45.3899Z" fill="#ECECEC"/>
<path d="M113.512 48.3038C114.181 47.8628 114.322 46.9946 113.975 46.3857C114.11 46.9909 113.835 47.6581 113.218 48.0651C112.763 48.3653 112.215 48.4615 111.72 48.3705C112.241 48.6082 112.983 48.652 113.512 48.3038L113.512 48.3038Z" fill="#A2AE98"/>
<path d="M112.978 48.0979C113.701 47.7321 114.026 46.9698 113.772 46.321C113.817 46.9422 113.482 47.5029 112.816 47.8405C112.324 48.0895 111.74 48.2 111.265 48.0528C111.744 48.3497 112.408 48.3867 112.978 48.0979L112.978 48.0979Z" fill="#ECECEC"/>
<path d="M65.2872 70.2114C65.2872 71.6515 64.6686 73.0326 63.5674 74.0509C62.4662 75.0692 60.9727 75.6413 59.4155 75.6413C57.8582 75.6413 56.3647 75.0692 55.2635 74.0509C54.1623 73.0326 53.5437 71.6515 53.5437 70.2114C53.5437 68.7714 54.1623 67.3903 55.2635 66.372C56.3647 65.3537 57.8582 64.7816 59.4155 64.7816C60.9727 64.7816 62.4662 65.3537 63.5674 66.372C64.6686 67.3903 65.2872 68.7714 65.2872 70.2114V70.2114Z" fill="#C4CCBE"/>
<path d="M58.6568 65.3243C55.9462 65.6905 53.994 67.8462 53.9943 70.307C54.6127 68.1839 56.5827 66.7662 59.0838 66.4281C60.9286 66.1789 62.66 66.4451 63.9652 67.495C62.8297 65.9412 60.7968 65.0348 58.6568 65.324V65.3243Z" fill="#A2AE98"/>
<path d="M58.3478 64.4555C55.6373 64.8224 53.5182 66.6296 53.519 69.0904C54.1368 66.9672 56.0643 65.2775 58.5653 64.9388C60.4101 64.6891 62.1836 65.2264 63.4892 66.276C62.3531 64.7224 60.4878 64.1657 58.3478 64.4553V64.4555Z" fill="#ECECEC"/>
<path d="M62.1793 76.2969C64.7337 75.3817 65.9499 72.5293 65.3572 70.1301C65.2656 72.3272 63.7927 74.3711 61.4357 75.2155C59.6972 75.8384 57.8389 75.6793 56.3135 74.9246C57.7948 76.2056 60.1625 77.0196 62.1792 76.2971L62.1793 76.2969Z" fill="#A2AE98"/>
<path d="M60.6372 75.0932C63.2965 74.4855 65.0133 72.1647 64.7549 69.7156C64.3622 71.8841 62.7883 73.5057 60.3346 74.0663C58.5246 74.4799 56.5353 74.3366 55.1259 73.4088C56.4192 74.8534 58.5376 75.573 60.6372 75.0932V75.0932Z" fill="#ECECEC"/>
<path d="M88.3945 125.773C88.3945 126.766 88.0001 127.718 87.2981 128.42C86.5961 129.122 85.644 129.516 84.6512 129.516C83.6584 129.516 82.7063 129.122 82.0043 128.42C81.3023 127.718 80.9079 126.766 80.9079 125.773C80.9079 124.78 81.3023 123.828 82.0043 123.126C82.7063 122.424 83.6584 122.03 84.6512 122.03C85.644 122.03 86.5961 122.424 87.2981 123.126C88.0001 123.828 88.3945 124.78 88.3945 125.773V125.773Z" fill="#C4CCBE"/>
<path d="M84.17 122.404C82.4421 122.657 81.1976 124.143 81.1976 125.84C81.5918 124.376 82.8477 123.399 84.4421 123.166C85.6182 122.994 86.7221 123.177 87.5543 123.901C86.8303 122.83 85.5344 122.205 84.17 122.404V122.404Z" fill="#A2AE98"/>
<path d="M83.9715 121.804C82.2436 122.057 80.8925 123.303 80.8931 124.999C81.2869 123.536 82.5158 122.371 84.1102 122.138C85.2863 121.965 86.4169 122.336 87.2493 123.059C86.5251 121.988 85.3359 121.604 83.9717 121.804L83.9715 121.804Z" fill="#ECECEC"/>
<path d="M86.4154 129.969C88.0438 129.338 88.8192 127.372 88.4415 125.718C88.383 127.232 87.444 128.641 85.9415 129.223C84.8332 129.653 83.6484 129.543 82.676 129.023C83.6203 129.906 85.1298 130.467 86.4154 129.969V129.969Z" fill="#A2AE98"/>
<path d="M85.4298 129.139C87.1251 128.72 88.2195 127.12 88.0549 125.431C87.8045 126.926 86.8011 128.044 85.2369 128.431C84.083 128.716 82.8148 128.617 81.9164 127.977C82.7409 128.973 84.0914 129.469 85.4299 129.139L85.4298 129.139Z" fill="#ECECEC"/>
<path d="M62.5302 129.811C62.5302 130.567 62.2298 131.293 61.6952 131.827C61.1605 132.362 60.4354 132.662 59.6793 132.662C58.9231 132.662 58.198 132.362 57.6633 131.827C57.1287 131.293 56.8283 130.567 56.8283 129.811C56.8283 129.055 57.1287 128.33 57.6633 127.795C58.198 127.261 58.9231 126.96 59.6793 126.96C60.4354 126.96 61.1605 127.261 61.6952 127.795C62.2298 128.33 62.5302 129.055 62.5302 129.811V129.811Z" fill="#C4CCBE"/>
<path d="M59.3128 127.246C57.9968 127.438 57.049 128.57 57.049 129.862C57.3492 128.747 58.3057 128.003 59.52 127.826C60.4158 127.695 61.2565 127.835 61.8903 128.386C61.3389 127.57 60.3519 127.094 59.3128 127.246V127.246Z" fill="#A2AE98"/>
<path d="M59.1619 126.788C57.8458 126.981 56.8168 127.93 56.8173 129.222C57.1172 128.107 58.0531 127.22 59.2675 127.042C60.1632 126.911 61.0242 127.193 61.6583 127.744C61.1067 126.929 60.201 126.636 59.162 126.788L59.1619 126.788Z" fill="#ECECEC"/>
<path d="M61.0231 133.007C62.2633 132.526 62.8538 131.028 62.5661 129.769C62.5216 130.922 61.8065 131.996 60.6621 132.439C59.818 132.766 58.9157 132.682 58.175 132.286C58.8942 132.959 60.0439 133.386 61.0231 133.007V133.007Z" fill="#A2AE98"/>
<path d="M60.2722 132.375C61.5634 132.055 62.3969 130.837 62.2715 129.551C62.0809 130.69 61.3167 131.541 60.1253 131.835C59.2465 132.052 58.2806 131.977 57.5964 131.49C58.2244 132.249 59.2529 132.626 60.2723 132.374L60.2722 132.375Z" fill="#ECECEC"/>
<path d="M77.648 124.7C77.648 125.287 77.4147 125.85 76.9996 126.265C76.5845 126.68 76.0215 126.914 75.4344 126.914C74.8474 126.914 74.2843 126.68 73.8692 126.265C73.4541 125.85 73.2209 125.287 73.2209 124.7C73.2209 124.113 73.4541 123.55 73.8692 123.135C74.2843 122.72 74.8474 122.486 75.4344 122.486C76.0215 122.486 76.5845 122.72 76.9996 123.135C77.4147 123.55 77.648 124.113 77.648 124.7V124.7Z" fill="#C4CCBE"/>
<path d="M75.15 122.708C74.1282 122.857 73.3923 123.736 73.3923 124.739C73.6254 123.874 74.368 123.296 75.3109 123.158C76.0063 123.056 76.6591 123.165 77.1512 123.593C76.7231 122.959 75.9568 122.59 75.15 122.708V122.708Z" fill="#A2AE98"/>
<path d="M75.0327 122.352C74.0109 122.502 73.212 123.239 73.2123 124.242C73.4452 123.376 74.1719 122.688 75.1147 122.55C75.8102 122.448 76.4787 122.667 76.971 123.095C76.5427 122.461 75.8395 122.234 75.0328 122.353L75.0327 122.352Z" fill="#ECECEC"/>
<path d="M76.4777 127.181C77.4406 126.808 77.8991 125.645 77.6757 124.667C77.6412 125.563 77.0859 126.396 76.1974 126.74C75.542 126.994 74.8414 126.929 74.2664 126.621C74.8248 127.144 75.7175 127.475 76.4777 127.181V127.181Z" fill="#A2AE98"/>
<path d="M75.8948 126.69C76.8973 126.442 77.5445 125.496 77.4471 124.498C77.2991 125.382 76.7057 126.043 75.7807 126.271C75.0984 126.44 74.3485 126.382 73.8173 126.003C74.3048 126.592 75.1034 126.886 75.8949 126.69L75.8948 126.69Z" fill="#ECECEC"/>
<path d="M116.588 129.411C116.882 130.394 116.679 131.48 116.022 132.429C115.365 133.378 114.309 134.113 113.085 134.472C111.862 134.832 110.571 134.785 109.498 134.344C108.424 133.902 107.656 133.102 107.361 132.119C107.066 131.135 107.27 130.05 107.927 129.1C108.584 128.151 109.64 127.416 110.864 127.057C112.087 126.698 113.378 126.744 114.451 127.185C115.525 127.627 116.293 128.427 116.588 129.411V129.411Z" fill="#C4CCBE"/>
<path d="M110.385 127.61C108.328 128.489 107.234 130.418 107.738 132.105C107.79 130.507 109.049 129.079 110.947 128.269C112.347 127.671 113.763 127.453 115.005 127.87C113.794 127.068 112.009 126.917 110.385 127.61L110.385 127.61Z" fill="#A2AE98"/>
<path d="M109.964 127.094C107.907 127.973 106.61 129.703 107.114 131.391C107.166 129.791 108.336 128.186 110.234 127.375C111.634 126.777 113.139 126.735 114.381 127.153C113.17 126.35 111.588 126.4 109.964 127.094L109.964 127.094Z" fill="#ECECEC"/>
<path d="M115.391 134.263C117.211 133.047 117.584 130.815 116.627 129.311C117.005 130.835 116.265 132.573 114.585 133.694C113.346 134.522 111.852 134.842 110.499 134.678C111.925 135.213 113.953 135.222 115.391 134.262L115.391 134.263Z" fill="#A2AE98"/>
<path d="M113.929 133.808C115.896 132.777 116.771 130.79 116.067 129.172C116.202 130.748 115.296 132.223 113.481 133.174C112.143 133.876 110.549 134.238 109.251 133.928C110.564 134.619 112.377 134.622 113.93 133.808L113.929 133.808Z" fill="#ECECEC"/>
<path d="M139.762 71.3993C139.762 72.9765 139.269 74.4891 138.393 75.6043C137.517 76.7195 136.329 77.346 135.09 77.346C133.851 77.346 132.662 76.7195 131.786 75.6043C130.91 74.4891 130.418 72.9765 130.418 71.3993C130.418 69.8222 130.91 68.3096 131.786 67.1944C132.662 66.0792 133.851 65.4526 135.09 65.4526C136.329 65.4526 137.517 66.0792 138.393 67.1944C139.269 68.3096 139.762 69.8222 139.762 71.3993V71.3993Z" fill="#C4CCBE"/>
<path d="M134.489 66.0489C132.332 66.45 130.779 68.811 130.779 71.5061C131.271 69.1809 132.839 67.6282 134.829 67.258C136.296 66.9851 137.674 67.2767 138.713 68.4265C137.809 66.7247 136.192 65.7322 134.489 66.0488V66.0489Z" fill="#A2AE98"/>
<path d="M134.241 65.0943C132.085 65.4961 130.399 67.4754 130.399 70.1705C130.891 67.8451 132.425 65.9945 134.415 65.624C135.882 65.3505 137.293 65.939 138.332 67.0885C137.428 65.3869 135.944 64.7771 134.242 65.0944L134.241 65.0943Z" fill="#ECECEC"/>
<path d="M137.292 78.0653C139.324 77.063 140.292 73.9388 139.82 71.3113C139.747 73.7176 138.575 75.9559 136.7 76.8806C135.317 77.5628 133.838 77.3886 132.624 76.562C133.803 77.965 135.687 78.8565 137.292 78.0652V78.0653Z" fill="#A2AE98"/>
<path d="M136.061 76.7463C138.177 76.0807 139.543 73.539 139.337 70.8564C139.025 73.2315 137.773 75.0072 135.82 75.6214C134.38 76.0745 132.798 75.9174 131.676 74.9013C132.705 76.4835 134.391 77.2716 136.061 76.7461L136.061 76.7463Z" fill="#ECECEC"/>
<path d="M75.1506 81.7518C72.9007 83.3073 72.1384 86.1139 73.2543 88.3073C72.8428 86.1347 73.9558 83.9779 76.0317 82.5424C77.563 81.4838 79.2269 80.9359 80.8664 81.2798C79.1497 80.4097 76.9269 80.5238 75.1505 81.7518L75.1506 81.7518Z" fill="#A2AE98"/>
<path d="M75.4266 80.4008C72.9042 81.4586 71.3266 83.7539 71.9661 86.1304C72.0116 83.9196 73.4346 81.7874 75.7621 80.8116C77.4788 80.0917 79.331 80.1503 80.8644 80.825C79.3641 79.6195 77.4181 79.5659 75.4268 80.4011L75.4266 80.4008Z" fill="#ECECEC"/>
</svg>
