<svg width="141" height="163" viewBox="0 0 141 163" fill="none" xmlns="http://www.w3.org/2000/svg">
<g clip-path="url(#clip0_9719_9411)">
<path d="M71.7164 -1.97998L36.5295 58.9726L1.21191 38.7056L71.7164 -1.97998Z" fill="#FFD369"/>
<path d="M142.351 38.7055L107.025 58.9679H107.015L71.8105 -2.00171L142.351 38.7055Z" fill="#F59B37"/>
<path d="M142.352 38.7056V120.156L107.021 58.9725L107.025 58.968L142.352 38.7056Z" fill="#814A36"/>
<path d="M107.02 58.9725L107.016 58.968H107.025L107.02 58.9725Z" fill="#F59B37"/>
<path d="M36.5295 58.9725L1.21191 120.152V38.7056L36.5295 58.9725Z" fill="#F6BE5A"/>
<path d="M71.7793 160.884L1.2207 120.161L71.7162 120.165L71.7252 120.174L71.7793 160.884Z" fill="#B8582F"/>
<path d="M142.333 120.17L71.7787 160.884L71.7246 120.174L71.7291 120.165L142.333 120.17Z" fill="#814A36"/>
<path d="M71.7293 120.165L71.7248 120.174L71.7158 120.165H71.7293Z" fill="#F59B37"/>
<path d="M107.016 58.9682L36.5383 58.9772L36.5293 58.9727L71.7162 -1.97987L71.7793 -2.01904L71.8108 -2.00148L107.016 58.9682Z" fill="#F3AA39"/>
<path d="M142.351 120.156L142.333 120.17L71.7295 120.165L107.02 58.9727L142.351 120.156Z" fill="#B8582F"/>
<path d="M71.7164 120.165L1.22093 120.161L1.21191 120.156V120.152L36.5295 58.9727L36.5385 58.9772L71.7164 120.165Z" fill="#F3AA39"/>
<path d="M1.22055 120.161H1.20703L1.21154 120.156L1.22055 120.161Z" fill="#F6BE5A"/>
<path d="M107.02 58.9725L71.7295 120.165H71.716L36.5381 58.977L107.016 58.968L107.02 58.9725Z" fill="#F59B37"/>
<path d="M71.7293 120.165L71.7248 120.174L71.7158 120.165H71.7293Z" fill="#F3AA39"/>
<path d="M107.025 58.968L107.02 58.9725L107.016 58.968H107.025Z" fill="#F3AA39"/>
</g>
<defs>
<clipPath id="clip0_9719_9411">
<rect width="141" height="163" fill="white"/>
</clipPath>
</defs>
</svg>
